<?xml version="1.0" encoding="UTF-8" standalone="no"?>
<svg
   xmlns:dc="http://purl.org/dc/elements/1.1/"
   xmlns:cc="http://creativecommons.org/ns#"
   xmlns:rdf="http://www.w3.org/1999/02/22-rdf-syntax-ns#"
   xmlns:svg="http://www.w3.org/2000/svg"
   xmlns="http://www.w3.org/2000/svg"
   xmlns:sodipodi="http://sodipodi.sourceforge.net/DTD/sodipodi-0.dtd"
   xmlns:inkscape="http://www.inkscape.org/namespaces/inkscape"
   sodipodi:docname="ts-browser.svg"
   inkscape:version="1.0rc1 (09960d6f05, 2020-04-09)"
   id="svg8"
   version="1.1"
   viewBox="0 0 8.4666665 8.4666665"
   height="32"
   width="32">
  <defs
     id="defs2">
    <clipPath
       id="clipPath3729"
       clipPathUnits="userSpaceOnUse">
      <path
         inkscape:connector-curvature="0"
         id="path3727"
         d="M 0,600 H 600 V 0 H 0 Z" />
    </clipPath>
    <clipPath
       clipPathUnits="userSpaceOnUse"
       id="clipPath6055">
      <path
         inkscape:connector-curvature="0"
         id="path6057"
         style="display:inline;fill:#ffffff;fill-opacity:1;stroke:none;stroke-width:2.5446"
         d="m 504.16311,-311.25446 -106.92391,61.71663 c -4.00011,2.30541 -6.46073,6.57015 -6.46073,11.1835 v 0 123.53504 c 0,4.61589 2.46062,8.87809 6.45564,11.18858 v 0 l 106.92391,61.767519 c 3.99756,2.307948 8.92389,2.307948 12.924,0 v 0 l 106.94682,-61.767519 c 3.99756,-2.31049 6.45818,-6.57269 6.45818,-11.18858 v 0 -123.52995 c 0,-4.61844 -2.46062,-8.88318 -6.46073,-11.18859 v 0 l -106.94936,-61.71663 c -1.9975,-1.15524 -4.22657,-1.73032 -6.45818,-1.73032 v 0 c -2.22906,0 -4.46068,0.57508 -6.45564,1.73032"
         clip-path="none" />
    </clipPath>
  </defs>
  <sodipodi:namedview
     inkscape:window-maximized="0"
     inkscape:window-y="245"
     inkscape:window-x="351"
     inkscape:window-height="1198"
     inkscape:window-width="1375"
     inkscape:pagecheckerboard="true"
     units="px"
     showgrid="false"
     inkscape:document-rotation="0"
     inkscape:current-layer="layer1"
     inkscape:document-units="mm"
     inkscape:cy="18.595969"
     inkscape:cx="17.535049"
     inkscape:zoom="22.4"
     inkscape:pageshadow="2"
     inkscape:pageopacity="0.0"
     borderopacity="1.0"
     bordercolor="#666666"
     pagecolor="#ffffff"
     id="base" />
  <metadata
     id="metadata5">
    <rdf:RDF>
      <cc:Work
         rdf:about="">
        <dc:format>image/svg+xml</dc:format>
        <dc:type
           rdf:resource="http://purl.org/dc/dcmitype/StillImage" />
        <dc:title></dc:title>
      </cc:Work>
    </rdf:RDF>
  </metadata>
  <g
     id="layer1"
     inkscape:groupmode="layer"
     inkscape:label="Layer 1">
    <g
       transform="matrix(0.14891067,0,0,0.14891067,-1.4512129,-1.6147799)"
       id="g930">
      <circle
         style="fill:#4581d2;fill-opacity:1;fill-rule:evenodd;stroke-width:0.264583"
         id="path90"
         cx="40.3577"
         cy="41.29314"
         r="26.058779" />
      <path
         style="fill:#8cb5ff;fill-opacity:1;stroke:none;stroke-width:0.264583px;stroke-linecap:butt;stroke-linejoin:miter;stroke-opacity:1"
         d="m 41.120366,40.307094 0.267269,-25.123336 c 0,0 17.273803,0.539839 23.383269,17.504765 6.109465,16.964895 -7.347097,28.398775 -7.347097,28.398775 z"
         id="path921"
         inkscape:connector-curvature="0"
         sodipodi:nodetypes="cczcc" />
      <path
         sodipodi:nodetypes="cczcc"
         inkscape:connector-curvature="0"
         id="path923"
         d="M 40.093027,41.140647 23.318469,60.965129 c 0,0 -13.181475,-10.03474 -7.447494,-28.316935 5.733981,-18.282195 24.370121,-17.433645 24.370121,-17.433645 z"
         style="fill:#c1d7ff;fill-opacity:1;stroke:none;stroke-width:0.264583px;stroke-linecap:butt;stroke-linejoin:miter;stroke-opacity:1"
         inkscape:transform-center-x="0.71826186"
         inkscape:transform-center-y="0.44963089" />
      <circle
         r="12.828938"
         cy="41.29314"
         cx="40.3577"
         id="circle917"
         style="fill:#ffffff;fill-opacity:1;fill-rule:evenodd;stroke-width:0.130256" />
      <circle
         style="fill:#6b9fff;fill-opacity:1;fill-rule:evenodd;stroke-width:0.109903"
         id="circle919"
         cx="40.3577"
         cy="41.29314"
         r="10.824416" />
    </g>
    <g
       transform="matrix(0.0577331,0,0,0.0577331,-1.6563395,-0.34171052)"
       id="g88">
      <g
         style="display:inline"
         id="g988">
        <path
           inkscape:connector-curvature="0"
           d="m 238.756,373.131 -42.02,-24.254 c -1.572,-0.906 -2.539,-2.582 -2.539,-4.395 v 0 -48.548 c 0,-1.814 0.967,-3.489 2.537,-4.397 v 0 l 42.02,-24.274 c 1.571,-0.907 3.507,-0.907 5.079,0 v 0 l 42.029,24.274 c 1.571,0.908 2.538,2.583 2.538,4.397 v 0 48.546 c 0,1.815 -0.967,3.491 -2.539,4.397 v 0 l -42.03,24.254 c -0.785,0.454 -1.661,0.68 -2.538,0.68 v 0 c -0.876,0 -1.753,-0.226 -2.537,-0.68"
           style="display:inline;fill:#2261a8;fill-opacity:1;stroke:none"
           id="path986"
           transform="matrix(0.85414046,0,0,-0.85414046,-136.62306,325.68399)" />
      </g>
      <g
         transform="translate(0,-137)"
         style="display:inline"
         id="g6024">
        <g
           id="g6000"
           transform="matrix(0.33566843,0,0,-0.33566843,93.833153,320.85739)"
           style="fill:#ffffff;fill-opacity:1">
          <g
             clip-path="url(#clipPath3729)"
             id="g5998"
             style="fill:#ffffff;fill-opacity:1">
            <g
               transform="translate(296.6858,164.7731)"
               id="g5984"
               style="fill:#ffffff;fill-opacity:1" />
            <g
               transform="translate(309.0271,196.5389)"
               id="g5986"
               style="fill:#ffffff;fill-opacity:1" />
            <g
               transform="translate(357.6771,245.4249)"
               id="g5988"
               style="fill:#ffffff;fill-opacity:1" />
            <g
               transform="translate(172.9639,345.1672)"
               id="g5990"
               style="fill:#ffffff;fill-opacity:1" />
            <g
               transform="translate(372.849,310.9881)"
               id="g5992"
               style="fill:#ffffff;fill-opacity:1" />
            <g
               transform="translate(517.8843,328.2278)"
               id="g5994"
               style="fill:#ffffff;fill-opacity:1" />
            <g
               transform="translate(472.5912,330.5186)"
               id="g5996"
               style="fill:#ffffff;fill-opacity:1" />
          </g>
        </g>
        <g
           id="g6008"
           transform="matrix(0.33566843,0,0,-0.33566843,93.833153,320.85739)"
           style="fill:#ffffff;fill-opacity:1">
          <g
             id="g6006"
             style="fill:#ffffff;fill-opacity:1">
            <g
               id="g6004"
               style="fill:#ffffff;fill-opacity:1">
              <g
                 id="g6002"
                 style="fill:#ffffff;fill-opacity:1" />
            </g>
          </g>
        </g>
        <g
           id="g6016"
           transform="matrix(0.81271557,0,0,-0.81271557,-122.48932,447.8392)"
           style="fill:#ffffff;fill-opacity:1">
          <g
             id="g6014"
             style="fill:#ffffff;fill-opacity:1">
            <g
               id="g6012"
               style="fill:#ffffff;fill-opacity:1">
              <g
                 id="g6010"
                 style="fill:#ffffff;fill-opacity:1" />
            </g>
          </g>
        </g>
        <g
           id="text6020"
           style="font-style:normal;font-weight:normal;font-size:179.622px;line-height:1.25;font-family:sans-serif;letter-spacing:0px;word-spacing:0px;fill:#ffffff;fill-opacity:1;stroke:none;stroke-width:4.49055;stroke-opacity:1"
           transform="matrix(0.33566843,0,0,0.33566843,-101.92354,248.65528)"
           aria-label="TS"
           clip-path="url(#clipPath6055)">
          <path
             inkscape:connector-curvature="0"
             id="path6026"
             style="font-style:normal;font-variant:normal;font-weight:bold;font-stretch:normal;font-size:179.619px;font-family:'Neutra Text';-inkscape-font-specification:'Neutra Text, Bold';font-variant-ligatures:normal;font-variant-caps:normal;font-variant-numeric:normal;font-feature-settings:normal;text-align:start;writing-mode:lr-tb;text-anchor:start;fill:#ffffff;fill-opacity:1;stroke:none;stroke-width:4.49055;stroke-opacity:1"
             d="m 463.02884,-49.655869 h 25.14663 V -149.70353 h 34.84604 v -22.09311 H 428.1828 v 22.09311 h 34.84604 z" />
          <path
             inkscape:connector-curvature="0"
             id="path6028"
             style="font-style:normal;font-variant:normal;font-weight:bold;font-stretch:normal;font-size:179.619px;font-family:'Neutra Text';-inkscape-font-specification:'Neutra Text, Bold';font-variant-ligatures:normal;font-variant-caps:normal;font-variant-numeric:normal;font-feature-settings:normal;text-align:start;writing-mode:lr-tb;text-anchor:start;fill:#ffffff;fill-opacity:1;stroke:none;stroke-width:4.49055;stroke-opacity:1"
             d="m 575.63859,-48.0393 c 23.88929,0 41.67155,-12.393695 41.67155,-35.025661 0,-21.015399 -12.03446,-30.355569 -33.40909,-39.516129 l -6.28666,-2.69428 c -10.77712,-4.67009 -15.44721,-7.72361 -15.44721,-15.2676 0,-6.10704 4.67009,-10.77712 12.03446,-10.77712 7.18475,0 11.85484,3.05351 16.16569,10.77712 l 19.57844,-12.57331 c -8.26246,-14.54912 -19.75806,-20.11731 -35.74413,-20.11731 -22.45235,0 -36.82185,14.36951 -36.82185,33.22948 0,20.47654 12.03446,30.17595 30.17595,37.89956 l 6.28666,2.694281 c 11.4956,5.029326 18.32111,8.082845 18.32111,16.704546 0,7.184751 -6.64589,12.393695 -17.06378,12.393695 -12.39369,0 -19.39883,-6.466275 -24.78739,-15.267595 l -20.47654,11.854839 c 7.36437,14.54912 22.45235,25.685484 45.80279,25.685484 z" />
        </g>
      </g>
      <g
         id="layer2"
         style="display:inline"
         transform="translate(0,-137)" />
    </g>
  </g>
</svg>
